<mxfile host="app.diagrams.net" modified="2022-03-15T14:49:20.608Z" agent="5.0 (Windows NT 10.0; Win64; x64) AppleWebKit/537.36 (KHTML, like Gecko) Chrome/99.0.4844.51 Safari/537.36" etag="VLC5hraF3vLvKRCkl_o7" version="17.1.2" type="github">
  <diagram id="6a731a19-8d31-9384-78a2-239565b7b9f0" name="Page-1">
    <mxGraphModel dx="1375" dy="748" grid="1" gridSize="10" guides="1" tooltips="1" connect="1" arrows="1" fold="1" page="1" pageScale="1" pageWidth="827" pageHeight="1169" background="none" math="0" shadow="0">
      <root>
        <mxCell id="0" />
        <mxCell id="1" parent="0" />
        <mxCell id="2086" value="" style="rounded=1;whiteSpace=wrap;html=1;strokeColor=none;fillColor=#BAC8D3;fontSize=24;fontColor=#23445D;align=center;opacity=60;" parent="1" vertex="1">
          <mxGeometry x="215.62" width="334.75" height="500" as="geometry" />
        </mxCell>
        <mxCell id="2087" value="&lt;font color=&quot;#23445d&quot;&gt;E3000&lt;/font&gt;" style="rounded=1;whiteSpace=wrap;html=1;strokeColor=none;fillColor=none;fontSize=14;fontColor=#742B21;align=center;fontStyle=1" parent="1" vertex="1">
          <mxGeometry x="414" y="204" width="73" height="19" as="geometry" />
        </mxCell>
        <mxCell id="2132" value="" style="shape=mxgraph.cisco.routers.router;html=1;dashed=0;fillColor=#10739E;strokeColor=#ffffff;strokeWidth=2;verticalLabelPosition=bottom;verticalAlign=top;fontFamily=Helvetica;fontSize=36;fontColor=#FFB366" parent="1" vertex="1">
          <mxGeometry x="344" y="170" width="78" height="53" as="geometry" />
        </mxCell>
        <mxCell id="2134" value="" style="shape=mxgraph.cisco.routers.router;html=1;dashed=0;fillColor=#10739E;strokeColor=#ffffff;strokeWidth=2;verticalLabelPosition=bottom;verticalAlign=top;fontFamily=Helvetica;fontSize=36;fontColor=#FFB366" parent="1" vertex="1">
          <mxGeometry x="344" y="417" width="78" height="53" as="geometry" />
        </mxCell>
        <mxCell id="2200" style="rounded=1;html=1;strokeColor=#23445D;endArrow=none;endFill=0;strokeWidth=4" parent="1" source="2132" target="2134" edge="1">
          <mxGeometry relative="1" as="geometry" />
        </mxCell>
        <mxCell id="2230" value="IBR600B" style="rounded=1;whiteSpace=wrap;html=1;strokeColor=none;fillColor=none;fontSize=14;fontColor=#23445D;align=center;fontStyle=1" parent="1" vertex="1">
          <mxGeometry x="414" y="451" width="96" height="19" as="geometry" />
        </mxCell>
        <mxCell id="E9ez-XwBaUj8NQudhiuh-2257" value="192.168.70.70" style="text;strokeColor=none;fillColor=none;html=1;fontSize=12;fontStyle=1;verticalAlign=middle;align=center;" vertex="1" parent="1">
          <mxGeometry x="410" y="407" width="100" height="10" as="geometry" />
        </mxCell>
        <mxCell id="E9ez-XwBaUj8NQudhiuh-2258" value="192.168.70.1" style="text;strokeColor=none;fillColor=none;html=1;fontSize=12;fontStyle=1;verticalAlign=middle;align=center;" vertex="1" parent="1">
          <mxGeometry x="270" y="230" width="100" height="10" as="geometry" />
        </mxCell>
        <mxCell id="E9ez-XwBaUj8NQudhiuh-2259" value="" style="endArrow=classic;html=1;rounded=0;fontSize=12;" edge="1" parent="1">
          <mxGeometry width="50" height="50" relative="1" as="geometry">
            <mxPoint x="356" y="233" as="sourcePoint" />
            <mxPoint x="376" y="233" as="targetPoint" />
          </mxGeometry>
        </mxCell>
        <mxCell id="E9ez-XwBaUj8NQudhiuh-2264" value="" style="endArrow=classic;html=1;rounded=0;fontSize=12;" edge="1" parent="1">
          <mxGeometry width="50" height="50" relative="1" as="geometry">
            <mxPoint x="406" y="260" as="sourcePoint" />
            <mxPoint x="406" y="260" as="targetPoint" />
            <Array as="points">
              <mxPoint x="406" y="260" />
            </Array>
          </mxGeometry>
        </mxCell>
        <mxCell id="E9ez-XwBaUj8NQudhiuh-2265" value="" style="endArrow=classic;html=1;rounded=0;fontSize=12;" edge="1" parent="1">
          <mxGeometry width="50" height="50" relative="1" as="geometry">
            <mxPoint x="414" y="411.77" as="sourcePoint" />
            <mxPoint x="394" y="411.77" as="targetPoint" />
            <Array as="points">
              <mxPoint x="394" y="411.77" />
            </Array>
          </mxGeometry>
        </mxCell>
        <mxCell id="E9ez-XwBaUj8NQudhiuh-2269" value="" style="endArrow=none;html=1;rounded=0;fontSize=12;startArrow=none;" edge="1" parent="1" target="2086">
          <mxGeometry width="50" height="50" relative="1" as="geometry">
            <mxPoint x="382.988811881188" as="sourcePoint" />
            <mxPoint x="382.77" y="110" as="targetPoint" />
            <Array as="points" />
          </mxGeometry>
        </mxCell>
        <mxCell id="E9ez-XwBaUj8NQudhiuh-2271" value="" style="sketch=0;pointerEvents=1;shadow=0;dashed=0;html=1;strokeColor=none;fillColor=#434445;aspect=fixed;labelPosition=center;verticalLabelPosition=bottom;verticalAlign=top;align=center;outlineConnect=0;shape=mxgraph.vvd.wi_fi;fontSize=12;rotation=-135;direction=south;" vertex="1" parent="1">
          <mxGeometry x="357.99" y="100" width="50" height="50" as="geometry" />
        </mxCell>
        <mxCell id="E9ez-XwBaUj8NQudhiuh-2272" value="10.27.27.150" style="text;strokeColor=none;fillColor=none;html=1;fontSize=12;fontStyle=1;verticalAlign=middle;align=center;" vertex="1" parent="1">
          <mxGeometry x="387" y="160" width="100" height="10" as="geometry" />
        </mxCell>
      </root>
    </mxGraphModel>
  </diagram>
</mxfile>
